<svg width="60" height="60" viewBox="0 0 60 60" fill="none" xmlns="http://www.w3.org/2000/svg">
<g clip-path="url(#clip0)">
<circle cx="30" cy="30" r="39.5" stroke="black" stroke-opacity="0.1"/>
<path d="M45.3333 37.3793V29.3333H30.6667V22.6207C33.2933 22.2907 35.3333 20.048 35.3333 17.3333C35.3333 14.3927 32.9407 12 30 12C27.0593 12 24.6667 14.3927 24.6667 17.3333C24.6667 20.048 26.7067 22.2907 29.3333 22.6207V29.3333H14.6667V37.3793C12.04 37.7093 10 39.952 10 42.6667C10 45.6073 12.3927 48 15.3333 48C18.274 48 20.6667 45.6073 20.6667 42.6667C20.6667 39.952 18.6267 37.7093 16 37.3793V30.6667H29.3333V37.3793C26.7067 37.7093 24.6667 39.952 24.6667 42.6667C24.6667 45.6073 27.0593 48 30 48C32.9407 48 35.3333 45.6073 35.3333 42.6667C35.3333 39.952 33.2933 37.7093 30.6667 37.3793V30.6667H44V37.3793C41.3733 37.7093 39.3333 39.952 39.3333 42.6667C39.3333 45.6073 41.726 48 44.6667 48C47.6073 48 50 45.6073 50 42.6667C50 39.952 47.96 37.7093 45.3333 37.3793ZM26 17.3333C26 15.1273 27.794 13.3333 30 13.3333C32.206 13.3333 34 15.1273 34 17.3333C34 19.5393 32.206 21.3333 30 21.3333C27.794 21.3333 26 19.5393 26 17.3333ZM19.3333 42.6667C19.3333 44.8727 17.5393 46.6667 15.3333 46.6667C13.1273 46.6667 11.3333 44.8727 11.3333 42.6667C11.3333 40.4607 13.1273 38.6667 15.3333 38.6667C17.5393 38.6667 19.3333 40.4607 19.3333 42.6667ZM34 42.6667C34 44.8727 32.206 46.6667 30 46.6667C27.794 46.6667 26 44.8727 26 42.6667C26 40.4607 27.794 38.6667 30 38.6667C32.206 38.6667 34 40.4607 34 42.6667ZM44.6667 46.6667C42.4607 46.6667 40.6667 44.8727 40.6667 42.6667C40.6667 40.4607 42.4607 38.6667 44.6667 38.6667C46.8727 38.6667 48.6667 40.4607 48.6667 42.6667C48.6667 44.8727 46.8727 46.6667 44.6667 46.6667Z" fill="#DEC377"/>
</g>
<defs>
<clipPath id="clip0">
<rect width="40.0005" height="40.0005" fill="white" transform="translate(9.99951 9.99951)"/>
</clipPath>
</defs>
</svg>
