<svg width="81" height="81" viewBox="0 0 81 81" fill="none" xmlns="http://www.w3.org/2000/svg">
<g clip-path="url(#clip0)">
<circle cx="41.0005" cy="35.0005" r="39.5" stroke="black" stroke-opacity="0.1"/>
<g clip-path="url(#clip1)">
<path d="M56.3338 42.3798V34.3338H41.6672V27.6212C44.2938 27.2912 46.3338 25.0485 46.3338 22.3338C46.3338 19.3932 43.9412 17.0005 41.0005 17.0005C38.0598 17.0005 35.6672 19.3932 35.6672 22.3338C35.6672 25.0485 37.7072 27.2912 40.3338 27.6212V34.3338H25.6672V42.3798C23.0405 42.7098 21.0005 44.9525 21.0005 47.6672C21.0005 50.6078 23.3932 53.0005 26.3338 53.0005C29.2745 53.0005 31.6672 50.6078 31.6672 47.6672C31.6672 44.9525 29.6272 42.7098 27.0005 42.3798V35.6672H40.3338V42.3798C37.7072 42.7098 35.6672 44.9525 35.6672 47.6672C35.6672 50.6078 38.0598 53.0005 41.0005 53.0005C43.9412 53.0005 46.3338 50.6078 46.3338 47.6672C46.3338 44.9525 44.2938 42.7098 41.6672 42.3798V35.6672H55.0005V42.3798C52.3738 42.7098 50.3338 44.9525 50.3338 47.6672C50.3338 50.6078 52.7265 53.0005 55.6672 53.0005C58.6078 53.0005 61.0005 50.6078 61.0005 47.6672C61.0005 44.9525 58.9605 42.7098 56.3338 42.3798ZM37.0005 22.3338C37.0005 20.1278 38.7945 18.3338 41.0005 18.3338C43.2065 18.3338 45.0005 20.1278 45.0005 22.3338C45.0005 24.5398 43.2065 26.3338 41.0005 26.3338C38.7945 26.3338 37.0005 24.5398 37.0005 22.3338ZM30.3338 47.6672C30.3338 49.8732 28.5398 51.6672 26.3338 51.6672C24.1278 51.6672 22.3338 49.8732 22.3338 47.6672C22.3338 45.4612 24.1278 43.6672 26.3338 43.6672C28.5398 43.6672 30.3338 45.4612 30.3338 47.6672ZM45.0005 47.6672C45.0005 49.8732 43.2065 51.6672 41.0005 51.6672C38.7945 51.6672 37.0005 49.8732 37.0005 47.6672C37.0005 45.4612 38.7945 43.6672 41.0005 43.6672C43.2065 43.6672 45.0005 45.4612 45.0005 47.6672ZM55.6672 51.6672C53.4612 51.6672 51.6672 49.8732 51.6672 47.6672C51.6672 45.4612 53.4612 43.6672 55.6672 43.6672C57.8732 43.6672 59.6672 45.4612 59.6672 47.6672C59.6672 49.8732 57.8732 51.6672 55.6672 51.6672Z" fill="#DEC377"/>
</g>
</g>
<circle cx="40.5" cy="40.5" r="40" stroke="#DADADA"/>
<defs>
<clipPath id="clip0">
<rect width="40.0005" height="40.0005" fill="white" transform="translate(21 15)"/>
</clipPath>
<clipPath id="clip1">
<rect width="40" height="40" fill="white" transform="translate(21.0005 15.0005)"/>
</clipPath>
</defs>
</svg>
